# Exported from MakeClothes (TM)
# author MRT
# license CC0
# homepage http://www.makehuman.org/
v 1.8827 -7.3148 -0.0005
v 1.8438 -6.8477 -0.0498
v 1.8427 -6.9710 -0.0273
v 1.8582 -7.1385 -0.0192
v 1.9784 -6.9710 0.2037
v 1.9866 -7.1385 0.2243
v 1.6641 -6.8477 0.5629
v 1.7456 -6.8477 -0.0944
v 1.9842 -6.8477 0.1866
v 1.9822 -6.8477 0.3409
v 1.7453 -6.8477 0.5651
v 1.5972 -6.8477 0.5433
v 1.8385 -6.8477 0.5373
v 1.9261 -6.8477 0.4642
v 1.6602 -6.9710 -0.0759
v 1.5739 -6.9709 -0.0439
v 1.6921 -6.9710 0.5625
v 1.9250 -6.9710 0.0633
v 1.7518 -6.9710 -0.0708
v 1.9757 -6.9710 0.3567
v 1.7647 -6.9710 0.5569
v 1.6279 -6.9710 0.5569
v 1.8454 -6.9710 0.5316
v 1.5647 -6.9710 0.5322
v 1.5042 -6.9710 0.4722
v 1.4384 -6.9710 0.2574
v 1.4512 -6.9709 0.1346
v 1.9224 -6.9709 0.4696
v 1.4999 -6.9709 0.0278
v 1.7070 -7.1386 0.6101
v 1.9797 -7.1384 0.3741
v 1.7891 -7.1383 0.5893
v 1.6197 -7.1396 0.6087
v 1.8611 -7.1384 0.5528
v 1.5417 -7.1402 0.5727
v 1.9283 -7.1384 0.4873
v 1.9950 -7.3149 0.2553
v 1.4292 -7.1381 0.2761
v 1.4829 -7.1396 0.4996
v 1.7638 -7.1384 -0.0745
v 1.5763 -7.1383 -0.0510
v 1.4936 -7.1384 0.0319
v 1.6691 -7.1383 -0.0852
v 1.4425 -7.1384 0.1495
v 1.9398 -7.1385 0.0828
v 1.9351 -7.3148 0.5472
v 1.5967 -7.3154 0.6874
v 1.9849 -7.3149 0.4168
v 1.4186 -7.3148 0.1835
v 1.6696 -7.3146 -0.0977
v 1.9569 -7.3150 0.1060
v 1.7821 -7.3147 -0.0877
v 1.5529 -7.3146 -0.0434
v 1.4469 -7.3150 0.5809
v 1.5059 -7.3154 0.6521
v 1.4002 -7.3146 0.3333
v 1.6975 -7.3153 0.6865
v 1.7891 -7.3150 0.6663
v 1.8752 -7.3149 0.6309
v 1.4680 -7.3147 0.0578
v 1.4407 -6.8477 0.3598
v 1.4590 -6.9710 0.3752
v 1.4451 -7.1385 0.3972
v 1.4136 -7.3147 0.4768
v 1.6099 -7.9579 2.0528
v 1.4488 -7.9725 2.0613
v 1.8138 -7.9883 1.9969
v 1.8641 -8.0024 1.9736
v 1.9373 -8.0180 1.9137
v 1.9879 -8.0780 1.8741
v 1.5252 -8.1489 2.0529
v 1.4130 -8.1155 2.0480
v 1.4164 -8.0685 2.0705
v 1.9851 -8.1411 1.8527
v 1.9585 -8.1736 1.8651
v 1.5065 -7.5624 0.8942
v 1.4002 -7.6851 0.7304
v 1.7398 -7.5423 0.9265
v 1.8579 -7.5713 0.8952
v 1.9556 -7.6205 0.8425
v 2.0924 -7.7971 0.6624
v 1.4966 -7.4254 0.7216
v 1.7160 -7.4022 0.7603
v 1.8106 -7.4399 0.7605
v 1.9058 -7.4861 0.7122
v 1.4812 -8.0978 0.7101
v 1.4128 -8.0310 0.7385
v 1.3949 -7.7697 0.6043
v 1.4176 -7.5309 0.5613
v 1.4030 -7.5603 0.4146
v 1.4792 -8.0961 0.5948
v 1.4160 -8.0068 0.5380
v 1.4494 -8.1187 0.3421
v 1.4231 -8.0172 0.3534
v 1.4851 -8.1488 0.2077
v 1.4742 -8.0560 0.1511
v 1.5212 -7.8079 0.0664
v 1.8178 -8.1277 -0.1525
v 1.7992 -7.7987 -0.1451
v 2.0282 -8.1010 -0.0021
v 1.9694 -7.7854 -0.0029
v 2.1329 -8.0447 0.2542
v 2.0724 -7.8172 0.2474
v 2.1564 -8.0427 0.4930
v 2.1061 -7.8336 0.4883
v 2.1642 -8.0619 0.6973
v 2.0169 -7.5889 0.5225
v 1.7850 -7.6043 -0.1002
v 1.9128 -7.6050 0.0168
v 2.0033 -7.5967 0.1579
v 2.0434 -7.5997 0.3189
v 1.4589 -7.8043 0.2573
v 1.5340 -7.5725 0.0340
v 1.4186 -7.8073 0.4437
v 2.0459 -8.1624 0.6650
v 1.8515 -8.2043 0.6852
v 1.6005 -8.1613 0.7529
v 2.0361 -8.1646 0.4603
v 1.8440 -8.2192 0.4666
v 1.5784 -8.1756 0.5274
v 2.0338 -8.1779 0.2493
v 1.8584 -8.2476 0.2048
v 1.4180 -7.5583 0.2661
v 1.5887 -8.2126 0.2933
v 2.0204 -8.2046 0.0667
v 1.8200 -8.2207 0.0166
v 1.4683 -7.5633 0.1412
v 1.5977 -8.1992 0.0891
v 1.6086 -8.1160 -0.0490
v 1.6288 -7.7757 -0.1068
v 1.6509 -7.5845 -0.0893
v 1.8524 -8.1781 1.9391
v 1.7059 -8.1828 1.9623
v 1.5212 -7.9655 2.0748
v 2.0169 -8.0078 1.8421
v 1.7055 -7.9607 2.0134
v 1.6866 -7.9350 1.9472
v 2.0615 -7.9862 1.7848
v 1.4672 -7.9495 1.9961
v 1.6867 -8.2303 1.8312
v 1.8573 -8.2179 1.7967
v 1.9929 -8.1964 1.7247
v 2.0771 -8.1435 1.6896
v 1.3350 -8.0432 1.9412
v 1.3503 -8.1389 1.8769
v 1.4788 -8.2292 1.8828
v 2.1052 -8.0536 1.7306
v 1.9808 -7.9574 1.8308
v 1.8940 -7.9576 1.8661
v 1.7951 -7.9521 1.9035
v 1.3779 -7.9946 1.9734
v 1.5750 -7.9298 1.9862
v 1.5502 -7.8833 1.7130
v 1.3303 -7.9375 1.7050
v 1.8067 -7.9070 1.6869
v 1.9179 -7.9106 1.6622
v 2.0263 -7.9103 1.6222
v 2.1861 -8.0000 1.5313
v 1.4373 -8.2157 1.6299
v 1.3049 -8.1395 1.6622
v 1.2814 -7.9994 1.6913
v 2.1478 -8.1320 1.5075
v 2.0356 -8.1876 1.5357
v 1.8594 -8.2119 1.5831
v 1.6496 -8.2401 1.6277
v 1.4222 -7.8958 1.7132
v 2.1278 -7.9371 1.5714
v 1.6861 -7.8936 1.7022
v 1.6810 -7.8425 1.5196
v 2.1173 -7.8747 1.3629
v 1.4181 -7.8376 1.5126
v 1.6319 -8.2312 1.4187
v 1.8631 -8.2116 1.3755
v 2.0701 -8.1859 1.3330
v 2.1898 -8.1207 1.3116
v 1.2577 -7.9740 1.4501
v 1.2959 -8.1344 1.4350
v 1.4124 -8.2147 1.4418
v 2.1870 -7.9322 1.3279
v 2.0215 -7.8593 1.4132
v 1.9063 -7.8641 1.4654
v 1.7946 -7.8588 1.4999
v 1.3138 -7.8896 1.4812
v 1.5479 -7.8263 1.5264
v 1.5025 -7.7600 1.3564
v 1.3083 -7.8796 1.2587
v 1.7914 -7.7780 1.3309
v 1.9085 -7.7964 1.2774
v 2.0051 -7.8098 1.2034
v 2.1771 -7.9029 1.0945
v 1.4495 -8.2029 1.2433
v 1.3351 -8.1251 1.2124
v 1.2816 -7.9730 1.2146
v 2.1959 -8.1077 1.1052
v 2.0732 -8.1935 1.1319
v 1.8666 -8.2320 1.1753
v 1.6360 -8.2241 1.2146
v 1.4436 -7.4620 0.6457
v 1.4383 -7.6109 0.8286
v 1.3846 -7.8011 1.3199
v 2.0958 -7.8381 1.1335
v 2.0369 -7.7062 0.7700
v 1.9689 -7.5415 0.6470
v 1.6479 -7.7575 1.3581
v 1.6279 -7.6414 1.1271
v 2.0816 -7.7888 0.9281
v 1.4046 -7.7364 1.0629
v 1.6301 -8.1930 0.9847
v 1.8612 -8.2151 0.9232
v 2.0635 -8.1793 0.8959
v 2.1801 -8.0876 0.8970
v 1.6139 -7.5390 0.9303
v 1.6106 -7.4095 0.7683
v 1.3406 -7.9118 0.9351
v 1.3867 -8.0846 0.9729
v 1.4785 -8.1541 1.0041
v 2.1628 -7.8733 0.8960
v 1.9930 -7.7292 0.9933
v 1.8973 -7.6857 1.0632
v 1.7712 -7.6505 1.1119
v 1.3563 -7.8202 0.9865
v 1.4984 -7.6712 1.1140
v 1.5457 -8.0774 2.0855
v 1.9254 -8.0835 1.9346
v 1.7047 -8.0812 2.0667
v 1.8108 -8.0132 2.0343
v 1.8451 -8.0800 2.0376
v 1.7361 -8.0080 2.0434
v 1.6490 -6.8477 -0.0947
v 1.5619 -6.8477 -0.0562
v 1.9307 -6.8477 0.0453
v 1.5375 -6.8477 0.5078
v 1.4828 -6.8477 0.4488
v 1.4243 -6.8477 0.2453
v 1.4416 -6.8477 0.1237
v 1.4904 -6.8477 0.0182
v 1.7111 -8.1322 2.0329
v 1.8441 -8.1326 2.0005
v 1.4160 -8.0914 2.0450
v 2.0085 -8.1166 1.8435
v 1.3910 -7.9338 0.6926
v 1.6123 -7.9738 -0.0909
v 1.4189 -7.9015 0.4973
v 1.4466 -7.9025 0.3213
v 2.1863 -7.9310 0.7106
v 2.1544 -7.9159 0.5215
v 1.2692 -8.0596 1.6786
v 2.1922 -8.0655 1.5125
v 2.1061 -8.1066 1.7005
v 1.3252 -8.0825 1.9171
v 2.1155 -7.9163 0.2734
v 2.0080 -7.9516 -0.0233
v 1.8101 -7.9806 -0.1921
v 1.4947 -7.9273 0.1243
v 1.9330 -8.1332 1.9194
v 1.5461 -8.1109 2.0832
v 2.2081 -7.9759 0.8933
v 1.3479 -8.0010 0.9378
v 1.2919 -8.0561 1.2055
v 2.2201 -8.0015 1.0908
v 2.2211 -8.0233 1.3112
v 1.2532 -8.0514 1.4362
v 1.9527 -7.5577 -0.0056
v 2.1019 -7.5383 0.3335
v 2.0224 -7.5161 0.7203
v 1.5729 -7.5055 0.9055
v 2.0885 -7.5260 0.5474
v 1.3359 -7.5437 0.2383
v 1.6695 -7.5651 -0.1346
v 2.0513 -7.5496 0.1357
v 1.8191 -7.5643 -0.1212
v 1.5142 -7.5610 -0.0625
v 1.3738 -7.5136 0.7648
v 1.4524 -7.5082 0.8588
v 1.3112 -7.5324 0.4368
v 1.7066 -7.5056 0.9045
v 1.8283 -7.5071 0.8779
v 1.9428 -7.5098 0.8312
v 1.4015 -7.5533 0.0717
v 1.3292 -7.5215 0.6270
v 1.8827 -7.3148 -0.0005
v 1.8827 -7.3148 -0.0005
v 1.7821 -7.3147 -0.0877
v 1.7821 -7.3147 -0.0877
v 1.9569 -7.3150 0.1060
v 1.9569 -7.3150 0.1060
v 1.7891 -7.3150 0.6663
v 1.7891 -7.3150 0.6663
v 1.8752 -7.3149 0.6309
v 1.8752 -7.3149 0.6309
v 1.4469 -7.3150 0.5809
v 1.4469 -7.3150 0.5809
v 1.5059 -7.3154 0.6521
v 1.5059 -7.3154 0.6521
v 1.5529 -7.3146 -0.0434
v 1.5529 -7.3146 -0.0434
v 1.4680 -7.3147 0.0578
v 1.4680 -7.3147 0.0578
v 1.4002 -7.3146 0.3333
v 1.4002 -7.3146 0.3333
v 1.4136 -7.3147 0.4768
v 1.4136 -7.3147 0.4768
v 1.9351 -7.3148 0.5472
v 1.9351 -7.3148 0.5472
v 1.9849 -7.3149 0.4168
v 1.9849 -7.3149 0.4168
v 1.6975 -7.3153 0.6865
v 1.6975 -7.3153 0.6865
v 1.9950 -7.3149 0.2553
v 1.9950 -7.3149 0.2553
v 1.4186 -7.3148 0.1835
v 1.4186 -7.3148 0.1835
v 1.5967 -7.3154 0.6874
v 1.5967 -7.3154 0.6874
v 1.6696 -7.3146 -0.0977
v 1.6696 -7.3146 -0.0977
v 1.8358 -6.8477 -0.0347
v 1.6650 -6.8477 0.5480
v 1.7425 -6.8477 -0.0771
v 1.9694 -6.8477 0.1901
v 1.9675 -6.8477 0.3369
v 1.7422 -6.8477 0.5501
v 1.6013 -6.8477 0.5294
v 1.8309 -6.8477 0.5237
v 1.9141 -6.8477 0.4542
v 1.4525 -6.8477 0.3549
v 1.6506 -6.8477 -0.0774
v 1.5678 -6.8477 -0.0407
v 1.9185 -6.8477 0.0558
v 1.5446 -6.8477 0.4956
v 1.4925 -6.8477 0.4395
v 1.4369 -6.8477 0.2460
v 1.4534 -6.8477 0.1303
v 1.4998 -6.8477 0.0300
v -1.8827 -7.3148 -0.0005
v -1.8438 -6.8477 -0.0498
v -1.8427 -6.9710 -0.0273
v -1.8582 -7.1385 -0.0192
v -1.9784 -6.9710 0.2037
v -1.9866 -7.1385 0.2243
v -1.6641 -6.8477 0.5629
v -1.7456 -6.8477 -0.0944
v -1.9842 -6.8477 0.1866
v -1.9822 -6.8477 0.3409
v -1.7453 -6.8477 0.5651
v -1.5972 -6.8477 0.5433
v -1.8385 -6.8477 0.5373
v -1.9261 -6.8477 0.4642
v -1.6602 -6.9710 -0.0759
v -1.5739 -6.9709 -0.0439
v -1.6921 -6.9710 0.5625
v -1.9250 -6.9710 0.0633
v -1.7518 -6.9710 -0.0708
v -1.9757 -6.9710 0.3567
v -1.7647 -6.9710 0.5569
v -1.6279 -6.9710 0.5569
v -1.8454 -6.9710 0.5316
v -1.5647 -6.9710 0.5322
v -1.5042 -6.9710 0.4722
v -1.4384 -6.9710 0.2574
v -1.4512 -6.9709 0.1346
v -1.9224 -6.9709 0.4696
v -1.4999 -6.9709 0.0278
v -1.7070 -7.1386 0.6101
v -1.9797 -7.1384 0.3741
v -1.7891 -7.1383 0.5893
v -1.6197 -7.1396 0.6087
v -1.8611 -7.1384 0.5528
v -1.5417 -7.1402 0.5727
v -1.9283 -7.1384 0.4873
v -1.9950 -7.3149 0.2553
v -1.4292 -7.1381 0.2761
v -1.4829 -7.1396 0.4996
v -1.7638 -7.1384 -0.0745
v -1.5763 -7.1383 -0.0510
v -1.4936 -7.1384 0.0319
v -1.6691 -7.1383 -0.0852
v -1.4425 -7.1384 0.1495
v -1.9398 -7.1385 0.0828
v -1.9351 -7.3148 0.5472
v -1.5967 -7.3154 0.6874
v -1.9849 -7.3149 0.4168
v -1.4186 -7.3148 0.1835
v -1.6696 -7.3146 -0.0977
v -1.9569 -7.3150 0.1060
v -1.7821 -7.3147 -0.0877
v -1.5529 -7.3146 -0.0434
v -1.4469 -7.3150 0.5809
v -1.5059 -7.3154 0.6521
v -1.4002 -7.3146 0.3333
v -1.6975 -7.3153 0.6865
v -1.7891 -7.3150 0.6663
v -1.8752 -7.3149 0.6309
v -1.4680 -7.3147 0.0578
v -1.4407 -6.8477 0.3598
v -1.4590 -6.9710 0.3752
v -1.4451 -7.1385 0.3972
v -1.4136 -7.3147 0.4768
v -1.6099 -7.9579 2.0528
v -1.4488 -7.9725 2.0613
v -1.8138 -7.9883 1.9969
v -1.8641 -8.0024 1.9736
v -1.9373 -8.0180 1.9137
v -1.9879 -8.0780 1.8741
v -1.5252 -8.1489 2.0529
v -1.4130 -8.1155 2.0480
v -1.4164 -8.0685 2.0705
v -1.9851 -8.1411 1.8527
v -1.9585 -8.1736 1.8651
v -1.5065 -7.5624 0.8942
v -1.4002 -7.6851 0.7304
v -1.7398 -7.5423 0.9265
v -1.8579 -7.5713 0.8952
v -1.9556 -7.6205 0.8425
v -2.0924 -7.7971 0.6624
v -1.4966 -7.4254 0.7216
v -1.7160 -7.4022 0.7603
v -1.8106 -7.4399 0.7605
v -1.9058 -7.4861 0.7122
v -1.4812 -8.0978 0.7101
v -1.4128 -8.0310 0.7385
v -1.3949 -7.7697 0.6043
v -1.4176 -7.5309 0.5613
v -1.4030 -7.5603 0.4146
v -1.4792 -8.0961 0.5948
v -1.4160 -8.0068 0.5380
v -1.4494 -8.1187 0.3421
v -1.4231 -8.0172 0.3534
v -1.4851 -8.1488 0.2077
v -1.4742 -8.0560 0.1511
v -1.5212 -7.8079 0.0664
v -1.8178 -8.1277 -0.1525
v -1.7992 -7.7987 -0.1451
v -2.0282 -8.1010 -0.0021
v -1.9694 -7.7854 -0.0029
v -2.1329 -8.0447 0.2542
v -2.0724 -7.8172 0.2474
v -2.1564 -8.0427 0.4930
v -2.1061 -7.8336 0.4883
v -2.1642 -8.0619 0.6973
v -2.0169 -7.5889 0.5225
v -1.7850 -7.6043 -0.1002
v -1.9128 -7.6050 0.0168
v -2.0033 -7.5967 0.1579
v -2.0434 -7.5997 0.3189
v -1.4589 -7.8043 0.2573
v -1.5340 -7.5725 0.0340
v -1.4186 -7.8073 0.4437
v -2.0459 -8.1624 0.6650
v -1.8515 -8.2043 0.6852
v -1.6005 -8.1613 0.7529
v -2.0361 -8.1646 0.4603
v -1.8440 -8.2192 0.4666
v -1.5784 -8.1756 0.5274
v -2.0338 -8.1779 0.2493
v -1.8584 -8.2476 0.2048
v -1.4180 -7.5583 0.2661
v -1.5887 -8.2126 0.2933
v -2.0204 -8.2046 0.0667
v -1.8200 -8.2207 0.0166
v -1.4683 -7.5633 0.1412
v -1.5977 -8.1992 0.0891
v -1.6086 -8.1160 -0.0490
v -1.6288 -7.7757 -0.1068
v -1.6509 -7.5845 -0.0893
v -1.8524 -8.1781 1.9391
v -1.7059 -8.1828 1.9623
v -1.5212 -7.9655 2.0748
v -2.0169 -8.0078 1.8421
v -1.7055 -7.9607 2.0134
v -1.6866 -7.9350 1.9472
v -2.0615 -7.9862 1.7848
v -1.4672 -7.9495 1.9961
v -1.6867 -8.2303 1.8312
v -1.8573 -8.2179 1.7967
v -1.9929 -8.1964 1.7247
v -2.0771 -8.1435 1.6896
v -1.3350 -8.0432 1.9412
v -1.3503 -8.1389 1.8769
v -1.4788 -8.2292 1.8828
v -2.1052 -8.0536 1.7306
v -1.9808 -7.9574 1.8308
v -1.8940 -7.9576 1.8661
v -1.7951 -7.9521 1.9035
v -1.3779 -7.9946 1.9734
v -1.5750 -7.9298 1.9862
v -1.5502 -7.8833 1.7130
v -1.3303 -7.9375 1.7050
v -1.8067 -7.9070 1.6869
v -1.9179 -7.9106 1.6622
v -2.0263 -7.9103 1.6222
v -2.1861 -8.0000 1.5313
v -1.4373 -8.2157 1.6299
v -1.3049 -8.1395 1.6622
v -1.2814 -7.9994 1.6913
v -2.1478 -8.1320 1.5075
v -2.0356 -8.1876 1.5357
v -1.8594 -8.2119 1.5831
v -1.6496 -8.2401 1.6277
v -1.4222 -7.8958 1.7132
v -2.1278 -7.9371 1.5714
v -1.6861 -7.8936 1.7022
v -1.6810 -7.8425 1.5196
v -2.1173 -7.8747 1.3629
v -1.4181 -7.8376 1.5126
v -1.6319 -8.2312 1.4187
v -1.8631 -8.2116 1.3755
v -2.0701 -8.1859 1.3330
v -2.1898 -8.1207 1.3116
v -1.2577 -7.9740 1.4501
v -1.2959 -8.1344 1.4350
v -1.4124 -8.2147 1.4418
v -2.1870 -7.9322 1.3279
v -2.0215 -7.8593 1.4132
v -1.9063 -7.8641 1.4654
v -1.7946 -7.8588 1.4999
v -1.3138 -7.8896 1.4812
v -1.5479 -7.8263 1.5264
v -1.5025 -7.7600 1.3564
v -1.3083 -7.8796 1.2587
v -1.7914 -7.7780 1.3309
v -1.9085 -7.7964 1.2774
v -2.0051 -7.8098 1.2034
v -2.1771 -7.9029 1.0945
v -1.4495 -8.2029 1.2433
v -1.3351 -8.1251 1.2124
v -1.2816 -7.9730 1.2146
v -2.1959 -8.1077 1.1052
v -2.0732 -8.1935 1.1319
v -1.8666 -8.2320 1.1753
v -1.6360 -8.2241 1.2146
v -1.4436 -7.4620 0.6457
v -1.4383 -7.6109 0.8286
v -1.3846 -7.8011 1.3199
v -2.0958 -7.8381 1.1335
v -2.0369 -7.7062 0.7700
v -1.9689 -7.5415 0.6470
v -1.6479 -7.7575 1.3581
v -1.6279 -7.6414 1.1271
v -2.0816 -7.7888 0.9281
v -1.4046 -7.7364 1.0629
v -1.6301 -8.1930 0.9847
v -1.8612 -8.2151 0.9232
v -2.0635 -8.1793 0.8959
v -2.1801 -8.0876 0.8970
v -1.6139 -7.5390 0.9303
v -1.6106 -7.4095 0.7683
v -1.3406 -7.9118 0.9351
v -1.3867 -8.0846 0.9729
v -1.4785 -8.1541 1.0041
v -2.1628 -7.8733 0.8960
v -1.9930 -7.7292 0.9933
v -1.8973 -7.6857 1.0632
v -1.7712 -7.6505 1.1119
v -1.3563 -7.8202 0.9865
v -1.4984 -7.6712 1.1140
v -1.5457 -8.0774 2.0855
v -1.9254 -8.0835 1.9346
v -1.7047 -8.0812 2.0667
v -1.8108 -8.0132 2.0343
v -1.8451 -8.0800 2.0376
v -1.7361 -8.0080 2.0434
v -1.6490 -6.8477 -0.0947
v -1.5619 -6.8477 -0.0562
v -1.9307 -6.8477 0.0453
v -1.5375 -6.8477 0.5078
v -1.4828 -6.8477 0.4488
v -1.4243 -6.8477 0.2453
v -1.4416 -6.8477 0.1237
v -1.4904 -6.8477 0.0182
v -1.7111 -8.1322 2.0329
v -1.8441 -8.1326 2.0005
v -1.4160 -8.0914 2.0450
v -2.0085 -8.1166 1.8435
v -1.3910 -7.9338 0.6926
v -1.6123 -7.9738 -0.0909
v -1.4189 -7.9015 0.4973
v -1.4466 -7.9025 0.3213
v -2.1863 -7.9310 0.7106
v -2.1544 -7.9159 0.5215
v -1.2692 -8.0596 1.6786
v -2.1922 -8.0655 1.5125
v -2.1061 -8.1066 1.7005
v -1.3252 -8.0825 1.9171
v -2.1155 -7.9163 0.2734
v -2.0080 -7.9516 -0.0233
v -1.8101 -7.9806 -0.1921
v -1.4947 -7.9273 0.1243
v -1.9330 -8.1332 1.9194
v -1.5461 -8.1109 2.0832
v -2.2081 -7.9759 0.8933
v -1.3479 -8.0010 0.9378
v -1.2919 -8.0561 1.2055
v -2.2201 -8.0015 1.0908
v -2.2211 -8.0233 1.3112
v -1.2532 -8.0514 1.4362
v -1.9527 -7.5577 -0.0056
v -2.1019 -7.5383 0.3335
v -2.0224 -7.5161 0.7203
v -1.5729 -7.5055 0.9055
v -2.0885 -7.5260 0.5474
v -1.3359 -7.5437 0.2383
v -1.6695 -7.5651 -0.1346
v -2.0513 -7.5496 0.1357
v -1.8191 -7.5643 -0.1212
v -1.5142 -7.5610 -0.0625
v -1.3738 -7.5136 0.7648
v -1.4524 -7.5082 0.8588
v -1.3112 -7.5324 0.4368
v -1.7066 -7.5056 0.9045
v -1.8283 -7.5071 0.8779
v -1.9428 -7.5098 0.8312
v -1.4015 -7.5533 0.0717
v -1.3292 -7.5215 0.6270
v -1.8827 -7.3148 -0.0005
v -1.8827 -7.3148 -0.0005
v -1.7821 -7.3147 -0.0877
v -1.7821 -7.3147 -0.0877
v -1.9569 -7.3150 0.1060
v -1.9569 -7.3150 0.1060
v -1.7891 -7.3150 0.6663
v -1.7891 -7.3150 0.6663
v -1.8752 -7.3149 0.6309
v -1.8752 -7.3149 0.6309
v -1.4469 -7.3150 0.5809
v -1.4469 -7.3150 0.5809
v -1.5059 -7.3154 0.6521
v -1.5059 -7.3154 0.6521
v -1.5529 -7.3146 -0.0434
v -1.5529 -7.3146 -0.0434
v -1.4680 -7.3147 0.0578
v -1.4680 -7.3147 0.0578
v -1.4002 -7.3146 0.3333
v -1.4002 -7.3146 0.3333
v -1.4136 -7.3147 0.4768
v -1.4136 -7.3147 0.4768
v -1.9351 -7.3148 0.5472
v -1.9351 -7.3148 0.5472
v -1.9849 -7.3149 0.4168
v -1.9849 -7.3149 0.4168
v -1.6975 -7.3153 0.6865
v -1.6975 -7.3153 0.6865
v -1.9950 -7.3149 0.2553
v -1.9950 -7.3149 0.2553
v -1.4186 -7.3148 0.1835
v -1.4186 -7.3148 0.1835
v -1.5967 -7.3154 0.6874
v -1.5967 -7.3154 0.6874
v -1.6696 -7.3146 -0.0977
v -1.6696 -7.3146 -0.0977
v -1.8358 -6.8477 -0.0347
v -1.6650 -6.8477 0.5480
v -1.7425 -6.8477 -0.0771
v -1.9694 -6.8477 0.1901
v -1.9675 -6.8477 0.3369
v -1.7422 -6.8477 0.5501
v -1.6013 -6.8477 0.5294
v -1.8309 -6.8477 0.5237
v -1.9141 -6.8477 0.4542
v -1.4525 -6.8477 0.3549
v -1.6506 -6.8477 -0.0774
v -1.5678 -6.8477 -0.0407
v -1.9185 -6.8477 0.0558
v -1.5446 -6.8477 0.4956
v -1.4925 -6.8477 0.4395
v -1.4369 -6.8477 0.2460
v -1.4534 -6.8477 0.1303
v -1.4998 -6.8477 0.0300
vt 0.3417 0.1268
vt 0.3417 0.1865
vt 0.2795 0.1865
vt 0.2795 0.1268
vt 0.3417 0.0723
vt 0.2795 0.0723
vt 0.6895 0.0723
vt 0.6493 0.0723
vt 0.6493 0.0321
vt 0.6895 0.0321
vt 0.6053 0.0723
vt 0.6053 0.0321
vt 0.7277 0.0321
vt 0.7277 0.0723
vt 0.2795 0.0723
vt 0.2251 0.0723
vt 0.2251 0.0321
vt 0.2795 0.0321
vt 0.7277 0.1268
vt 0.6895 0.1268
vt 0.6493 0.1268
vt 0.6053 0.1268
vt 0.6895 0.1865
vt 0.7277 0.1865
vt 0.8077 0.1268
vt 0.8077 0.1865
vt 0.7656 0.1865
vt 0.7656 0.1268
vt 0.8585 0.0723
vt 0.8585 0.1268
vt 0.8077 0.1268
vt 0.8077 0.0723
vt 0.1772 0.1268
vt 0.1772 0.0723
vt 0.2251 0.0723
vt 0.2251 0.1268
vt 0.0732 0.1268
vt 0.0732 0.0723
vt 0.1275 0.0723
vt 0.1275 0.1268
vt 0.1772 0.1865
vt 0.2251 0.1865
vt 0.0732 0.1865
vt 0.1275 0.1865
vt 0.8585 0.1865
vt 0.6493 0.1865
vt 0.6053 0.1865
vt 0.7656 0.0723
vt 0.5544 0.0723
vt 0.5544 0.0321
vt 0.9185 0.1865
vt 0.9185 0.1268
vt 0.9185 0.0723
vt 0.9815 0.1268
vt 0.9815 0.1865
vt 0.9815 0.0723
vt 0.5544 0.1268
vt 0.5544 0.1865
vt 0.0136 0.1865
vt 0.0136 0.1268
vt 0.0136 0.0723
vt 0.4151 0.1865
vt 0.4151 0.1268
vt 0.4903 0.1268
vt 0.4903 0.1865
vt 0.4903 0.0723
vt 0.4151 0.0723
vt 0.4151 0.0321
vt 0.4903 0.0321
vt 0.2586 0.7218
vt 0.2412 0.7215
vt 0.2507 0.6847
vt 0.2773 0.6905
vt 0.2233 0.7190
vt 0.2032 0.7256
vt 0.1981 0.6843
vt 0.2237 0.6819
vt 0.0862 0.7012
vt 0.1230 0.7307
vt 0.1130 0.7705
vt 0.0866 0.7578
vt 0.8537 0.9301
vt 0.8762 0.9279
vt 0.8941 0.8962
vt 0.8610 0.8915
vt 0.1741 0.7471
vt 0.1674 0.7716
vt 0.1230 0.7307
vt 0.1498 0.7053
vt 0.0940 0.8091
vt 0.1252 0.8164
vt 0.1515 0.8582
vt 0.1146 0.8673
vt 0.9094 0.5776
vt 0.8850 0.5941
vt 0.8861 0.6219
vt 0.9103 0.6275
vt 0.8997 0.5361
vt 0.8780 0.5386
vt 0.8768 0.4989
vt 0.8639 0.5157
vt 0.7466 0.4522
vt 0.7656 0.4794
vt 0.8027 0.4583
vt 0.8014 0.4289
vt 0.7037 0.5092
vt 0.7310 0.5176
vt 0.6859 0.5652
vt 0.7159 0.5664
vt 0.6787 0.6109
vt 0.7104 0.6139
vt 0.2818 0.8270
vt 0.2985 0.8029
vt 0.3622 0.7823
vt 0.3353 0.8375
vt 0.2599 0.8451
vt 0.2839 0.8772
vt 0.2325 0.8521
vt 0.2340 0.8962
vt 0.2386 0.3995
vt 0.2536 0.4034
vt 0.2463 0.4163
vt 0.2273 0.4108
vt 0.1753 0.6920
vt 0.1893 0.7356
vt 0.3030 0.6990
vt 0.2779 0.7302
vt 0.3050 0.7654
vt 0.3576 0.7378
vt 0.1792 0.8152
vt 0.1899 0.8310
vt 0.7402 0.8855
vt 0.7481 0.8857
vt 0.7285 0.8479
vt 0.7178 0.8516
vt 0.1722 0.7957
vt 0.7964 0.5703
vt 0.7545 0.5653
vt 0.7476 0.6109
vt 0.7932 0.6179
vt 0.7971 0.5203
vt 0.7620 0.5238
vt 0.8036 0.4887
vt 0.7754 0.4972
vt 0.2087 0.4063
vt 0.2272 0.3989
vt 0.8544 0.5812
vt 0.8534 0.6337
vt 0.8448 0.5343
vt 0.8400 0.4986
vt 0.2718 0.4107
vt 0.2943 0.4133
vt 0.2899 0.4339
vt 0.2673 0.4248
vt 0.2127 0.8451
vt 0.1950 0.8800
vt 0.8512 0.4410
vt 0.8397 0.4706
vt 0.8768 0.4989
vt 0.8977 0.4776
vt 0.7817 0.8714
vt 0.7517 0.8550
vt 0.7577 0.8867
vt 0.7805 0.9045
vt 0.8135 0.9109
vt 0.8187 0.8802
vt 0.3113 0.4424
vt 0.3058 0.4165
vt 0.3702 0.4628
vt 0.3486 0.4596
vt 0.3411 0.4449
vt 0.3459 0.4264
vt 0.3294 0.4516
vt 0.3247 0.4270
vt 0.2139 0.3803
vt 0.2187 0.3855
vt 0.1934 0.4025
vt 0.1832 0.3988
vt 0.3854 0.5131
vt 0.3633 0.5085
vt 0.3137 0.4890
vt 0.2891 0.4824
vt 0.8760 0.8396
vt 0.8289 0.8360
vt 0.7824 0.8239
vt 0.2620 0.4774
vt 0.2318 0.4718
vt 0.7421 0.8120
vt 0.2034 0.4658
vt 0.1806 0.4598
vt 0.7132 0.8048
vt 0.6941 0.8069
vt 0.9092 0.8504
vt 0.3382 0.4987
vt 0.1623 0.4539
vt 0.1478 0.4481
vt 0.3603 0.5600
vt 0.3363 0.5489
vt 0.9161 0.7992
vt 0.8841 0.7985
vt 0.2245 0.5166
vt 0.1932 0.5137
vt 0.7050 0.7588
vt 0.6806 0.7585
vt 0.1641 0.5117
vt 0.2831 0.5265
vt 0.2562 0.5208
vt 0.7836 0.7769
vt 0.7363 0.7650
vt 0.8356 0.7898
vt 0.3091 0.5357
vt 0.3837 0.5652
vt 0.1383 0.5084
vt 0.1190 0.5031
vt 0.3070 0.5840
vt 0.2778 0.5711
vt 0.8804 0.7532
vt 0.8379 0.7433
vt 0.2073 0.5588
vt 0.1750 0.5589
vt 0.2427 0.5633
vt 0.7857 0.7310
vt 0.7382 0.7189
vt 0.3569 0.6181
vt 0.3317 0.6019
vt 0.1438 0.5629
vt 0.7040 0.7109
vt 0.6787 0.7050
vt 0.1166 0.5640
vt 0.0952 0.5593
vt 0.9126 0.7469
vt 0.3848 0.6253
vt 0.3319 0.7121
vt 0.2929 0.7422
vt 0.1087 0.6395
vt 0.0862 0.6325
vt 0.1360 0.6347
vt 0.3511 0.6717
vt 0.3235 0.6576
vt 0.9086 0.6875
vt 0.8807 0.6954
vt 0.1977 0.6223
vt 0.1662 0.6254
vt 0.7070 0.6619
vt 0.6800 0.6568
vt 0.2650 0.6316
vt 0.2305 0.6255
vt 0.7893 0.6729
vt 0.7417 0.6644
vt 0.8434 0.6893
vt 0.2968 0.6424
vt 0.3817 0.6776
vt 0.2362 0.7383
vt 0.2225 0.7380
vt 0.2478 0.7420
vt 0.2109 0.7427
vt 0.2042 0.7513
vt 0.2572 0.7481
vt 0.2626 0.7597
vt 0.2643 0.7764
vt 0.2599 0.7940
vt 0.2514 0.8079
vt 0.2415 0.8162
vt 0.2007 0.7632
vt 0.1999 0.7787
vt 0.2029 0.7943
vt 0.2079 0.8062
vt 0.2138 0.8154
vt 0.2305 0.8210
vt 0.2219 0.8206
vt 0.3576 0.7378
vt 0.3319 0.7121
vt 0.2428 0.3778
vt 0.3308 0.4111
vt 0.2782 0.3835
vt 0.2807 0.4013
vt 0.2947 0.4045
vt 0.3058 0.3956
vt 0.2429 0.3702
vt 0.7585 0.9030
vt 0.3165 0.3855
vt 0.2857 0.3703
vt 0.7800 0.9225
vt 0.8507 0.9410
vt 0.8120 0.9309
vt 0.3417 0.0321
vt 0.1275 0.0321
vt 0.1772 0.0321
vt 0.7656 0.0321
vt 0.8077 0.0321
vt 0.8585 0.0321
vt 0.0732 0.0321
vt 0.9185 0.0321
vt 0.9815 0.0321
vt 0.0136 0.0321
vt 0.9331 0.5632
vt 0.9232 0.5202
vt 0.8787 0.9325
vt 0.9043 0.9100
vt 0.9320 0.7444
vt 0.9300 0.6763
vt 0.3091 0.9176
vt 0.2344 0.9484
vt 0.3421 0.4039
vt 0.9286 0.8577
vt 0.9381 0.8005
vt 0.3644 0.8448
vt 0.9331 0.6126
vt 0.3850 0.4603
vt 0.4021 0.5108
vt 0.4090 0.5639
vt 0.4131 0.6225
vt 0.1663 0.9274
vt 0.3589 0.4261
vt 0.4114 0.6760
vt 0.4003 0.7260
vt 0.3892 0.7786
vt 0.7295 0.2216
vt 0.7295 0.2813
vt 0.6850 0.2813
vt 0.6850 0.2216
vt 0.1319 0.2216
vt 0.1319 0.2813
vt 0.0734 0.2813
vt 0.0734 0.2216
vt 0.8618 0.2216
vt 0.8618 0.2813
vt 0.8135 0.2813
vt 0.8135 0.2216
vt 0.3553 0.2216
vt 0.3553 0.2813
vt 0.2978 0.2813
vt 0.2978 0.2216
vt 0.0137 0.2813
vt 0.0137 0.2216
vt 0.5567 0.2216
vt 0.5567 0.2813
vt 0.4950 0.2813
vt 0.4950 0.2216
vt 0.9256 0.2216
vt 0.9256 0.2813
vt 0.2389 0.2216
vt 0.2389 0.2813
vt 0.1889 0.2813
vt 0.1889 0.2216
vt 0.6435 0.2813
vt 0.6435 0.2216
vt 0.7726 0.2216
vt 0.7726 0.2813
vt 0.6023 0.2216
vt 0.6023 0.2813
vt 0.9924 0.2216
vt 0.9924 0.2813
vt 0.4234 0.2216
vt 0.4234 0.2813
vt 0.1772 0.0273
vt 0.2251 0.0273
vt 0.6895 0.0273
vt 0.7277 0.0273
vt 0.2795 0.0273
vt 0.3417 0.0273
vt 0.4151 0.0273
vt 0.8585 0.0273
vt 0.9185 0.0273
vt 0.5544 0.0273
vt 0.6053 0.0273
vt 0.9815 0.0273
vt 0.0136 0.0273
vt 0.0732 0.0273
vt 0.6493 0.0273
vt 0.4903 0.0273
vt 0.7656 0.0273
vt 0.8077 0.0273
vt 0.1275 0.0273
vt 0.3417 0.1268
vt 0.2795 0.1268
vt 0.2795 0.1865
vt 0.3417 0.1865
vt 0.3417 0.0723
vt 0.2795 0.0723
vt 0.6895 0.0723
vt 0.6895 0.0321
vt 0.6493 0.0321
vt 0.6493 0.0723
vt 0.6053 0.0321
vt 0.6053 0.0723
vt 0.7277 0.0723
vt 0.7277 0.0321
vt 0.2795 0.0723
vt 0.2795 0.0321
vt 0.2251 0.0321
vt 0.2251 0.0723
vt 0.6895 0.1268
vt 0.7277 0.1268
vt 0.6493 0.1268
vt 0.6053 0.1268
vt 0.6895 0.1865
vt 0.7277 0.1865
vt 0.8077 0.1268
vt 0.7656 0.1268
vt 0.7656 0.1865
vt 0.8077 0.1865
vt 0.8585 0.0723
vt 0.8077 0.0723
vt 0.8077 0.1268
vt 0.8585 0.1268
vt 0.1772 0.1268
vt 0.2251 0.1268
vt 0.2251 0.0723
vt 0.1772 0.0723
vt 0.0732 0.1268
vt 0.1275 0.1268
vt 0.1275 0.0723
vt 0.0732 0.0723
vt 0.1772 0.1865
vt 0.2251 0.1865
vt 0.0732 0.1865
vt 0.1275 0.1865
vt 0.8585 0.1865
vt 0.6053 0.1865
vt 0.6493 0.1865
vt 0.7656 0.0723
vt 0.5544 0.0321
vt 0.5544 0.0723
vt 0.9185 0.1865
vt 0.9185 0.1268
vt 0.9185 0.0723
vt 0.9815 0.1865
vt 0.9815 0.1268
vt 0.9815 0.0723
vt 0.5544 0.1268
vt 0.5544 0.1865
vt 0.0136 0.1268
vt 0.0136 0.1865
vt 0.0136 0.0723
vt 0.4151 0.1865
vt 0.4903 0.1865
vt 0.4903 0.1268
vt 0.4151 0.1268
vt 0.4903 0.0723
vt 0.4151 0.0723
vt 0.4903 0.0321
vt 0.4151 0.0321
vt 0.2471 0.7176
vt 0.2619 0.6843
vt 0.2347 0.6818
vt 0.2298 0.7195
vt 0.2118 0.7192
vt 0.2076 0.6824
vt 0.1825 0.6879
vt 0.1926 0.7282
vt 0.0735 0.7183
vt 0.0808 0.7744
vt 0.1086 0.7838
vt 0.1136 0.7431
vt 0.8480 0.9296
vt 0.8562 0.8912
vt 0.8891 0.8965
vt 0.8706 0.9279
vt 0.1663 0.7531
vt 0.1371 0.7146
vt 0.1136 0.7431
vt 0.1627 0.7783
vt 0.0945 0.8244
vt 0.1220 0.8796
vt 0.1575 0.8662
vt 0.1263 0.8279
vt 0.9111 0.5784
vt 0.9109 0.6283
vt 0.8868 0.6222
vt 0.8863 0.5943
vt 0.9023 0.5367
vt 0.8805 0.5387
vt 0.8802 0.4990
vt 0.8669 0.5155
vt 0.7509 0.4496
vt 0.8062 0.4274
vt 0.8069 0.4569
vt 0.7694 0.4772
vt 0.7069 0.5057
vt 0.7340 0.5147
vt 0.6879 0.5613
vt 0.7179 0.5631
vt 0.6797 0.6068
vt 0.7114 0.6105
vt 0.2831 0.8192
vt 0.3374 0.8230
vt 0.3574 0.7650
vt 0.2967 0.7933
vt 0.2635 0.8398
vt 0.2913 0.8688
vt 0.2372 0.8501
vt 0.2441 0.8938
vt 0.1878 0.4002
vt 0.1780 0.4128
vt 0.1975 0.4159
vt 0.2032 0.4023
vt 0.1608 0.6982
vt 0.1801 0.7399
vt 0.2884 0.6896
vt 0.2673 0.7236
vt 0.3473 0.7214
vt 0.2985 0.7552
vt 0.1797 0.8201
vt 0.1923 0.8345
vt 0.7354 0.8827
vt 0.7139 0.8483
vt 0.7246 0.8448
vt 0.7434 0.8831
vt 0.1704 0.8016
vt 0.7982 0.5687
vt 0.7940 0.6163
vt 0.7486 0.6082
vt 0.7564 0.5628
vt 0.8000 0.5188
vt 0.7648 0.5215
vt 0.8071 0.4872
vt 0.7787 0.4952
vt 0.1764 0.4010
vt 0.1589 0.4106
vt 0.8539 0.6333
vt 0.8560 0.5808
vt 0.8474 0.5337
vt 0.8434 0.4979
vt 0.2221 0.4073
vt 0.2194 0.4219
vt 0.2429 0.4281
vt 0.2447 0.4071
vt 0.2034 0.8824
vt 0.2167 0.8457
vt 0.8557 0.4406
vt 0.9015 0.4781
vt 0.8802 0.4990
vt 0.8437 0.4699
vt 0.7773 0.8694
vt 0.7754 0.9025
vt 0.7530 0.8842
vt 0.7476 0.8524
vt 0.8141 0.8790
vt 0.8082 0.9096
vt 0.2652 0.4339
vt 0.2566 0.4089
vt 0.3262 0.4469
vt 0.2976 0.4137
vt 0.2951 0.4327
vt 0.3043 0.4464
vt 0.2843 0.4408
vt 0.2766 0.4170
vt 0.1609 0.3842
vt 0.1327 0.4063
vt 0.1432 0.4087
vt 0.1663 0.3888
vt 0.3474 0.4950
vt 0.3249 0.4932
vt 0.2733 0.4799
vt 0.2480 0.4763
vt 0.8722 0.8396
vt 0.8252 0.8351
vt 0.7789 0.8220
vt 0.2206 0.4747
vt 0.1899 0.4728
vt 0.7389 0.8092
vt 0.1610 0.4704
vt 0.1376 0.4672
vt 0.6911 0.8032
vt 0.7101 0.8015
vt 0.9052 0.8511
vt 0.2988 0.4864
vt 0.1187 0.4636
vt 0.1037 0.4596
vt 0.3283 0.5446
vt 0.3031 0.5365
vt 0.8812 0.7987
vt 0.9131 0.8000
vt 0.1567 0.5191
vt 0.1881 0.5182
vt 0.6786 0.7544
vt 0.7029 0.7553
vt 0.1276 0.5207
vt 0.2201 0.5184
vt 0.2475 0.5208
vt 0.7812 0.7750
vt 0.7341 0.7621
vt 0.8328 0.7889
vt 0.2745 0.5267
vt 0.3521 0.5469
vt 0.0818 0.5177
vt 0.1016 0.5206
vt 0.2783 0.5750
vt 0.2477 0.5657
vt 0.8784 0.7533
vt 0.8362 0.7426
vt 0.1442 0.5662
vt 0.1762 0.5621
vt 0.2119 0.5622
vt 0.7842 0.7292
vt 0.7370 0.7160
vt 0.3320 0.6027
vt 0.3050 0.5897
vt 0.1138 0.5740
vt 0.6777 0.7009
vt 0.7030 0.7073
vt 0.0650 0.5763
vt 0.0868 0.5785
vt 0.9107 0.7477
vt 0.3605 0.6064
vt 0.2836 0.7337
vt 0.3187 0.6990
vt 0.0650 0.6501
vt 0.0883 0.6543
vt 0.1148 0.6463
vt 0.3328 0.6566
vt 0.3037 0.6460
vt 0.8799 0.6955
vt 0.9080 0.6882
vt 0.1436 0.6333
vt 0.1744 0.6264
vt 0.6800 0.6527
vt 0.7070 0.6584
vt 0.2075 0.6255
vt 0.2424 0.6273
vt 0.7890 0.6711
vt 0.7416 0.6617
vt 0.8428 0.6887
vt 0.2753 0.6342
vt 0.3638 0.6587
vt 0.2133 0.7382
vt 0.2269 0.7368
vt 0.2389 0.7390
vt 0.2023 0.7442
vt 0.1968 0.7535
vt 0.2489 0.7440
vt 0.2557 0.7547
vt 0.2594 0.7711
vt 0.2572 0.7892
vt 0.2505 0.8040
vt 0.2418 0.8135
vt 0.1947 0.7658
vt 0.1959 0.7813
vt 0.2007 0.7964
vt 0.2071 0.8077
vt 0.2142 0.8160
vt 0.2314 0.8196
vt 0.2228 0.8202
vt 0.3473 0.7214
vt 0.3187 0.6990
vt 0.1893 0.3782
vt 0.2807 0.4005
vt 0.2298 0.3969
vt 0.2252 0.3795
vt 0.2540 0.3881
vt 0.2440 0.3984
vt 0.1884 0.3706
vt 0.7534 0.9006
vt 0.2634 0.3768
vt 0.2310 0.3655
vt 0.7745 0.9205
vt 0.8448 0.9405
vt 0.8063 0.9296
vt 0.3417 0.0321
vt 0.1275 0.0321
vt 0.1772 0.0321
vt 0.8077 0.0321
vt 0.7656 0.0321
vt 0.8585 0.0321
vt 0.0732 0.0321
vt 0.9815 0.0321
vt 0.9185 0.0321
vt 0.0136 0.0321
vt 0.9260 0.5213
vt 0.9351 0.5645
vt 0.8990 0.9106
vt 0.8730 0.9325
vt 0.9296 0.6775
vt 0.9302 0.7456
vt 0.2508 0.9455
vt 0.3212 0.9057
vt 0.2911 0.3919
vt 0.9244 0.8588
vt 0.9351 0.8018
vt 0.3672 0.8268
vt 0.9341 0.6138
vt 0.3637 0.4907
vt 0.3405 0.4426
vt 0.3883 0.6002
vt 0.3771 0.5425
vt 0.1807 0.9330
vt 0.3105 0.4119
vt 0.3883 0.7045
vt 0.3931 0.6535
vt 0.3837 0.7581
vt 0.7295 0.2216
vt 0.6850 0.2216
vt 0.6850 0.2813
vt 0.7295 0.2813
vt 0.1319 0.2216
vt 0.0734 0.2216
vt 0.0734 0.2813
vt 0.1319 0.2813
vt 0.8618 0.2216
vt 0.8135 0.2216
vt 0.8135 0.2813
vt 0.8618 0.2813
vt 0.3553 0.2216
vt 0.2978 0.2216
vt 0.2978 0.2813
vt 0.3553 0.2813
vt 0.0137 0.2216
vt 0.0137 0.2813
vt 0.5567 0.2216
vt 0.4950 0.2216
vt 0.4950 0.2813
vt 0.5567 0.2813
vt 0.9256 0.2216
vt 0.9256 0.2813
vt 0.2389 0.2216
vt 0.1889 0.2216
vt 0.1889 0.2813
vt 0.2389 0.2813
vt 0.6435 0.2216
vt 0.6435 0.2813
vt 0.7726 0.2216
vt 0.7726 0.2813
vt 0.6023 0.2216
vt 0.6023 0.2813
vt 0.9924 0.2216
vt 0.9924 0.2813
vt 0.4234 0.2216
vt 0.4234 0.2813
vt 0.2251 0.0273
vt 0.1772 0.0273
vt 0.7277 0.0273
vt 0.6895 0.0273
vt 0.2795 0.0273
vt 0.4151 0.0273
vt 0.3417 0.0273
vt 0.9185 0.0273
vt 0.8585 0.0273
vt 0.6053 0.0273
vt 0.5544 0.0273
vt 0.9815 0.0273
vt 0.0732 0.0273
vt 0.0136 0.0273
vt 0.6493 0.0273
vt 0.4903 0.0273
vt 0.8077 0.0273
vt 0.7656 0.0273
vt 0.1275 0.0273
f 45/1 286/2 282/3 4/4
f 18/5 45/1 4/4 3/6
f 17/7 21/8 11/9 7/10
f 21/8 23/11 13/12 11/9
f 7/10 12/13 22/14 17/7
f 3/15 19/16 8/17 2/18
f 17/7 22/14 33/19 30/20
f 30/20 32/21 21/8 17/7
f 32/21 34/22 23/11 21/8
f 307/23 30/20 33/19 313/24
f 39/25 292/26 293/27 35/28
f 62/29 63/30 39/31 25/32
f 43/33 15/34 19/35 40/36
f 42/37 29/38 16/39 41/40
f 41/40 16/39 15/34 43/33
f 316/41 43/33 40/36 284/42
f 298/43 42/37 41/40 296/44
f 296/44 41/40 43/33 316/41
f 3/15 4/4 40/36 19/16
f 63/30 302/45 292/26 39/31
f 4/4 282/3 284/42 40/36
f 32/21 287/46 289/47 34/22
f 25/32 39/31 35/28 24/48
f 30/20 307/23 287/46 32/21
f 23/11 28/49 14/50 13/12
f 300/51 302/45 63/30 38/52
f 38/52 63/30 62/29 26/53
f 300/51 38/52 44/54 312/55
f 38/52 26/53 27/56 44/54
f 293/27 313/24 33/19 35/28
f 22/14 24/48 35/28 33/19
f 28/49 23/11 34/22 36/57
f 289/47 303/58 36/57 34/22
f 298/43 312/59 44/60 42/37
f 42/37 44/60 27/61 29/38
f 309/62 6/63 31/64 306/65
f 20/66 31/64 6/63 5/67
f 5/67 9/68 10/69 20/66
f 14/50 28/49 20/66 10/69
f 28/49 36/57 31/64 20/66
f 306/65 31/64 36/57 303/58
f 45/1 18/5 5/67 6/63
f 286/2 45/1 6/63 309/62
f 84/70 83/71 78/72 79/73
f 213/74 82/75 76/76 212/77
f 241/78 88/79 114/80 243/81
f 71/82 72/83 145/84 146/85
f 89/86 90/87 88/88 77/89
f 244/90 112/91 97/92 254/93
f 92/94 91/95 86/96 87/97
f 94/98 93/99 91/95 92/94
f 96/100 95/101 93/99 94/98
f 252/102 100/103 98/104 253/105
f 251/106 102/107 100/103 252/102
f 246/108 104/109 102/107 251/106
f 245/110 106/111 104/109 246/108
f 110/112 111/113 105/114 103/115
f 109/116 110/112 103/115 101/117
f 108/118 109/116 101/117 99/119
f 243/81 114/80 112/91 244/90
f 134/120 65/121 152/122 139/123
f 199/124 198/125 89/86 77/89
f 80/126 85/127 84/70 79/73
f 105/114 111/113 107/128 81/129
f 127/130 113/131 97/92 112/91
f 240/132 74/133 143/134 249/135
f 88/88 90/87 123/136 114/80
f 112/91 114/80 123/136 127/130
f 119/137 118/138 115/139 116/140
f 122/141 121/142 118/138 119/137
f 126/143 125/144 121/142 122/141
f 139/123 151/145 66/146 134/120
f 91/95 120/147 117/148 86/96
f 93/99 124/149 120/147 91/95
f 95/101 128/150 124/149 93/99
f 136/151 67/152 150/153 137/154
f 106/111 115/139 118/138 104/109
f 104/109 118/138 121/142 102/107
f 102/107 121/142 125/144 100/103
f 100/103 125/144 126/143 98/104
f 113/131 131/155 130/156 97/92
f 242/157 129/158 96/159 254/160
f 96/159 129/158 128/150 95/101
f 141/161 142/162 75/163 132/164
f 137/154 152/122 65/121 136/151
f 132/164 133/165 140/166 141/161
f 146/85 140/166 133/165 71/82
f 149/167 150/153 67/152 68/168
f 147/169 138/170 135/171 70/172
f 74/133 75/163 142/162 143/134
f 148/173 149/167 68/168 69/174
f 239/175 73/176 144/177 250/178
f 151/145 144/177 73/176 66/146
f 138/170 148/173 69/174 135/171
f 158/179 167/180 138/170 147/169
f 156/181 155/182 150/153 149/167
f 159/183 165/184 140/166 146/85
f 141/161 140/166 165/184 164/185
f 168/186 153/187 152/122 137/154
f 164/185 163/188 142/162 141/161
f 137/154 150/153 155/182 168/186
f 166/189 154/190 151/145 139/123
f 249/135 143/134 162/191 248/192
f 139/123 152/122 153/187 166/189
f 146/85 145/84 160/193 159/183
f 167/180 157/194 148/173 138/170
f 154/190 161/195 144/177 151/145
f 250/178 144/177 161/195 247/196
f 157/194 156/181 149/167 148/173
f 143/134 142/162 163/188 162/191
f 170/197 180/198 157/194 167/180
f 159/183 160/193 177/199 178/200
f 166/189 153/187 184/201 171/202
f 248/192 162/191 175/203 261/204
f 171/202 183/205 154/190 166/189
f 168/186 155/182 182/206 169/207
f 173/208 174/209 163/188 164/185
f 169/207 184/201 153/187 168/186
f 164/185 165/184 172/210 173/208
f 178/200 172/210 165/184 159/183
f 181/211 182/206 155/182 156/181
f 179/212 170/197 167/180 158/179
f 162/191 163/188 174/209 175/203
f 180/198 181/211 156/181 157/194
f 247/196 161/195 176/213 262/214
f 183/205 176/213 161/195 154/190
f 188/215 187/216 182/206 181/211
f 191/217 197/218 172/210 178/200
f 171/202 184/201 185/219 200/220
f 76/76 82/75 198/125 199/124
f 204/221 185/219 184/201 169/207
f 196/222 195/223 174/209 173/208
f 201/224 189/225 180/198 170/197
f 200/220 186/226 183/205 171/202
f 261/204 175/203 194/227 260/228
f 262/214 176/213 193/229 259/230
f 178/200 177/199 192/231 191/217
f 190/232 201/224 170/197 179/212
f 186/226 193/229 176/213 183/205
f 173/208 172/210 197/218 196/222
f 189/225 188/215 181/211 180/198
f 175/203 174/209 195/223 194/227
f 80/126 202/233 203/234 85/127
f 169/207 182/206 187/216 204/221
f 259/230 193/229 214/235 258/236
f 221/237 214/235 193/229 186/226
f 206/238 218/239 189/225 201/224
f 191/217 192/231 215/240 216/241
f 200/220 185/219 222/242 207/243
f 260/228 194/227 211/244 257/245
f 207/243 221/237 186/226 200/220
f 204/221 187/216 220/246 205/247
f 209/248 210/249 195/223 196/222
f 83/71 213/74 212/77 78/72
f 205/247 222/242 185/219 204/221
f 196/222 197/218 208/250 209/248
f 120/147 119/137 116/140 117/148
f 119/137 120/147 124/149 122/141
f 122/141 124/149 128/150 126/143
f 129/158 98/104 126/143 128/150
f 242/157 253/105 98/104 129/158
f 99/119 130/156 131/155 108/118
f 216/241 208/250 197/218 191/217
f 219/251 220/246 187/216 188/215
f 217/252 206/238 201/224 190/232
f 194/227 195/223 210/249 211/244
f 218/239 219/251 188/215 189/225
f 199/124 77/89 221/237 207/243
f 207/243 222/242 76/76 199/124
f 83/71 308/253 314/254 213/74
f 308/253 83/71 84/70 288/255
f 213/74 314/254 294/256 82/75
f 291/257 198/125 82/75 294/256
f 288/255 84/70 85/127 290/258
f 203/234 304/259 290/258 85/127
f 305/260 107/128 111/113 310/261
f 110/112 285/262 310/261 111/113
f 109/116 281/263 285/262 110/112
f 301/264 89/86 198/125 291/257
f 299/265 90/87 89/86 301/264
f 90/87 299/265 311/266 123/136
f 123/136 311/266 297/267 127/130
f 127/130 297/267 295/268 113/131
f 281/263 109/116 108/118 283/269
f 113/131 295/268 315/270 131/155
f 86/96 117/148 208/250 216/241
f 81/271 202/272 206/238 217/252
f 209/248 208/250 117/148 116/140
f 116/140 115/139 210/249 209/248
f 80/126 79/73 219/251 218/239
f 257/245 211/244 106/111 245/110
f 202/233 80/126 218/239 206/238
f 211/244 210/249 115/139 106/111
f 79/73 78/72 220/246 219/251
f 205/247 220/246 78/72 212/77
f 216/241 215/240 87/97 86/96
f 258/236 214/235 88/79 241/78
f 212/77 76/76 222/242 205/247
f 77/89 88/88 214/235 221/237
f 304/259 203/234 107/128 305/260
f 202/272 81/271 107/128 203/234
f 223/273 134/120 66/146 73/176
f 70/172 135/171 69/174 224/274
f 136/151 65/121 225/275 228/276
f 68/168 67/152 226/277 227/278
f 228/276 226/277 67/152 136/151
f 134/120 223/273 225/275 65/121
f 224/274 69/174 68/168 227/278
f 256/279 223/273 73/176 239/175
f 240/132 255/280 75/163 74/133
f 226/277 228/276 225/275 227/278
f 238/281 227/278 225/275 237/282
f 238/283 132/164 75/163 255/280
f 256/284 71/82 133/165 237/285
f 131/155 315/270 283/269 108/118
f 18/5 3/6 2/18 231/286
f 230/287 229/288 15/34 16/39
f 25/32 24/48 232/289 233/290
f 62/29 25/32 233/290 61/291
f 236/292 230/287 16/39 29/38
f 229/288 8/17 19/16 15/34
f 27/56 26/53 234/293 235/294
f 24/48 22/14 12/13 232/289
f 29/38 27/61 235/295 236/292
f 61/291 234/293 26/53 62/29
f 18/5 231/286 9/68 5/67
f 92/94 243/296 244/297 94/98
f 72/83 239/298 250/299 145/84
f 192/231 259/300 258/301 215/240
f 101/117 252/302 253/303 99/119
f 227/278 238/281 255/304 224/274
f 145/84 250/299 247/305 160/193
f 160/193 247/305 262/306 177/199
f 94/98 244/297 254/160 96/100
f 103/115 251/307 252/302 101/117
f 215/240 258/301 241/308 87/97
f 147/169 249/309 248/310 158/179
f 177/199 262/306 259/300 192/231
f 179/212 261/311 260/312 190/232
f 130/156 242/313 254/93 97/92
f 70/172 224/274 255/304 240/314
f 158/179 248/310 261/311 179/212
f 70/172 240/314 249/309 147/169
f 217/252 257/315 245/316 81/271
f 223/273 256/279 237/282 225/275
f 190/232 260/312 257/315 217/252
f 87/97 241/308 243/296 92/94
f 81/271 245/316 246/317 105/114
f 130/156 99/119 253/303 242/313
f 132/164 238/283 237/285 133/165
f 71/82 256/284 239/298 72/83
f 105/114 246/317 251/307 103/115
f 47/318 266/319 276/320 57/321
f 53/322 272/323 279/324 60/325
f 64/326 280/327 273/328 54/329
f 51/330 270/331 263/332 1/333
f 60/325 279/324 268/334 49/335
f 46/336 265/337 267/338 48/339
f 56/340 275/341 280/327 64/326
f 52/342 271/343 269/344 50/345
f 57/321 276/320 277/346 58/347
f 55/348 274/349 266/319 47/318
f 59/350 278/351 265/337 46/336
f 58/347 277/346 278/351 59/350
f 1/333 263/332 271/343 52/342
f 49/352 268/353 275/341 56/340
f 54/329 273/328 274/349 55/348
f 37/354 264/355 270/331 51/330
f 50/345 269/344 272/323 53/322
f 48/339 267/338 264/355 37/354
f 8/17 229/288 327/356 319/357
f 12/13 7/10 318/358 323/359
f 2/18 8/17 319/357 317/360
f 9/68 231/286 329/361 320/362
f 234/293 61/291 326/363 332/364
f 13/12 14/50 325/365 324/366
f 235/294 234/293 332/364 333/367
f 236/292 235/295 333/368 334/369
f 7/10 11/9 322/370 318/358
f 14/50 10/69 321/371 325/365
f 233/290 232/289 330/372 331/373
f 61/291 233/290 331/373 326/363
f 229/288 230/287 328/374 327/356
f 10/69 9/68 320/362 321/371
f 231/286 2/18 317/360 329/361
f 11/9 13/12 324/366 322/370
f 230/287 236/292 334/369 328/374
f 232/289 12/13 323/359 330/372
f 379/375 338/376 616/377 620/378
f 352/379 337/380 338/376 379/375
f 351/381 341/382 345/383 355/384
f 355/384 345/383 347/385 357/386
f 341/382 351/381 356/387 346/388
f 337/389 336/390 342/391 353/392
f 351/381 364/393 367/394 356/387
f 364/393 351/381 355/384 366/395
f 366/395 355/384 357/386 368/396
f 641/397 647/398 367/394 364/393
f 373/399 369/400 627/401 626/402
f 396/403 359/404 373/405 397/406
f 377/407 374/408 353/409 349/410
f 376/411 375/412 350/413 363/414
f 375/412 377/407 349/410 350/413
f 650/415 618/416 374/408 377/407
f 632/417 630/418 375/412 376/411
f 630/418 650/415 377/407 375/412
f 337/389 353/392 374/408 338/376
f 397/406 373/405 626/402 636/419
f 338/376 374/408 618/416 616/377
f 366/395 368/396 623/420 621/421
f 359/404 358/422 369/400 373/405
f 364/393 366/395 621/421 641/397
f 357/386 347/385 348/423 362/424
f 634/425 372/426 397/406 636/419
f 372/426 360/427 396/403 397/406
f 634/425 646/428 378/429 372/426
f 372/426 378/429 361/430 360/427
f 627/401 369/400 367/394 647/398
f 356/387 367/394 369/400 358/422
f 362/424 370/431 368/396 357/386
f 623/420 368/396 370/431 637/432
f 632/417 376/411 378/433 646/434
f 376/411 363/414 361/435 378/433
f 643/436 640/437 365/438 340/439
f 354/440 339/441 340/439 365/438
f 339/441 354/440 344/442 343/443
f 348/423 344/442 354/440 362/424
f 362/424 354/440 365/438 370/431
f 640/437 637/432 370/431 365/438
f 379/375 340/439 339/441 352/379
f 620/378 643/436 340/439 379/375
f 418/444 413/445 412/446 417/447
f 547/448 546/449 410/450 416/451
f 575/452 577/453 448/454 422/455
f 405/456 480/457 479/458 406/459
f 423/460 411/461 422/462 424/463
f 578/464 588/465 431/466 446/467
f 426/468 421/469 420/470 425/471
f 428/472 426/468 425/471 427/473
f 430/474 428/472 427/473 429/475
f 586/476 587/477 432/478 434/479
f 585/480 586/476 434/479 436/481
f 580/482 585/480 436/481 438/483
f 579/484 580/482 438/483 440/485
f 444/486 437/487 439/488 445/489
f 443/490 435/491 437/487 444/486
f 442/492 433/493 435/491 443/490
f 577/453 578/464 446/467 448/454
f 468/494 473/495 486/496 399/497
f 533/498 411/461 423/460 532/499
f 414/500 413/445 418/444 419/501
f 439/488 415/502 441/503 445/489
f 461/504 446/467 431/466 447/505
f 574/506 583/507 477/508 408/509
f 422/462 448/454 457/510 424/463
f 446/467 461/504 457/510 448/454
f 453/511 450/512 449/513 452/514
f 456/515 453/511 452/514 455/516
f 460/517 456/515 455/516 459/518
f 473/495 468/494 400/519 485/520
f 425/471 420/470 451/521 454/522
f 427/473 425/471 454/522 458/523
f 429/475 427/473 458/523 462/524
f 470/525 471/526 484/527 401/528
f 440/485 438/483 452/514 449/513
f 438/483 436/481 455/516 452/514
f 436/481 434/479 459/518 455/516
f 434/479 432/478 460/517 459/518
f 447/505 431/466 464/529 465/530
f 576/531 588/532 430/533 463/534
f 430/533 429/475 462/524 463/534
f 475/535 466/536 409/537 476/538
f 471/526 470/525 399/497 486/496
f 466/536 475/535 474/539 467/540
f 480/457 405/456 467/540 474/539
f 483/541 402/542 401/528 484/527
f 481/543 404/544 469/545 472/546
f 408/509 477/508 476/538 409/537
f 482/547 403/548 402/542 483/541
f 573/549 584/550 478/551 407/552
f 485/520 400/519 407/552 478/551
f 472/546 469/545 403/548 482/547
f 492/553 481/543 472/546 501/554
f 490/555 483/541 484/527 489/556
f 493/557 480/457 474/539 499/558
f 475/535 498/559 499/558 474/539
f 502/560 471/526 486/496 487/561
f 498/559 475/535 476/538 497/562
f 471/526 502/560 489/556 484/527
f 500/563 473/495 485/520 488/564
f 583/507 582/565 496/566 477/508
f 473/495 500/563 487/561 486/496
f 480/457 493/557 494/567 479/458
f 501/554 472/546 482/547 491/568
f 488/564 485/520 478/551 495/569
f 584/550 581/570 495/569 478/551
f 491/568 482/547 483/541 490/555
f 477/508 496/566 497/562 476/538
f 504/571 501/554 491/568 514/572
f 493/557 512/573 511/574 494/567
f 500/563 505/575 518/576 487/561
f 582/565 595/577 509/578 496/566
f 505/575 500/563 488/564 517/579
f 502/560 503/580 516/581 489/556
f 507/582 498/559 497/562 508/583
f 503/580 502/560 487/561 518/576
f 498/559 507/582 506/584 499/558
f 512/573 493/557 499/558 506/584
f 515/585 490/555 489/556 516/581
f 513/586 492/553 501/554 504/571
f 496/566 509/578 508/583 497/562
f 514/572 491/568 490/555 515/585
f 581/570 596/587 510/588 495/569
f 517/579 488/564 495/569 510/588
f 522/589 515/585 516/581 521/590
f 525/591 512/573 506/584 531/592
f 505/575 534/593 519/594 518/576
f 410/450 533/498 532/499 416/451
f 538/595 503/580 518/576 519/594
f 530/596 507/582 508/583 529/597
f 535/598 504/571 514/572 523/599
f 534/593 505/575 517/579 520/600
f 595/577 594/601 528/602 509/578
f 596/587 593/603 527/604 510/588
f 512/573 525/591 526/605 511/574
f 524/606 513/586 504/571 535/598
f 520/600 517/579 510/588 527/604
f 507/582 530/596 531/592 506/584
f 523/599 514/572 515/585 522/589
f 509/578 528/602 529/597 508/583
f 414/500 419/501 537/607 536/608
f 503/580 538/595 521/590 516/581
f 593/603 592/609 548/610 527/604
f 555/611 520/600 527/604 548/610
f 540/612 535/598 523/599 552/613
f 525/591 550/614 549/615 526/605
f 534/593 541/616 556/617 519/594
f 594/601 591/618 545/619 528/602
f 541/616 534/593 520/600 555/611
f 538/595 539/620 554/621 521/590
f 543/622 530/596 529/597 544/623
f 417/447 412/446 546/449 547/448
f 539/620 538/595 519/594 556/617
f 530/596 543/622 542/624 531/592
f 454/522 451/521 450/512 453/511
f 453/511 456/515 458/523 454/522
f 456/515 460/517 462/524 458/523
f 463/534 462/524 460/517 432/478
f 576/531 463/534 432/478 587/477
f 433/493 442/492 465/530 464/529
f 550/614 525/591 531/592 542/624
f 553/625 522/589 521/590 554/621
f 551/626 524/606 535/598 540/612
f 528/602 545/619 544/623 529/597
f 552/613 523/599 522/589 553/625
f 533/498 541/616 555/611 411/461
f 541/616 533/498 410/450 556/617
f 417/447 547/448 648/627 642/628
f 642/628 622/629 418/444 417/447
f 547/448 416/451 628/630 648/627
f 625/631 628/630 416/451 532/499
f 622/629 624/632 419/501 418/444
f 537/607 419/501 624/632 638/633
f 639/634 644/635 445/489 441/503
f 444/486 445/489 644/635 619/636
f 443/490 444/486 619/636 615/637
f 635/638 625/631 532/499 423/460
f 633/639 635/638 423/460 424/463
f 424/463 457/510 645/640 633/639
f 457/510 461/504 631/641 645/640
f 461/504 447/505 629/642 631/641
f 615/637 617/643 442/492 443/490
f 447/505 465/530 649/644 629/642
f 420/470 550/614 542/624 451/521
f 415/645 551/626 540/612 536/646
f 543/622 450/512 451/521 542/624
f 450/512 543/622 544/623 449/513
f 414/500 552/613 553/625 413/445
f 591/618 579/484 440/485 545/619
f 536/608 540/612 552/613 414/500
f 545/619 440/485 449/513 544/623
f 413/445 553/625 554/621 412/446
f 539/620 546/449 412/446 554/621
f 550/614 420/470 421/469 549/615
f 592/609 575/452 422/455 548/610
f 546/449 539/620 556/617 410/450
f 411/461 555/611 548/610 422/462
f 638/633 639/634 441/503 537/607
f 536/646 537/607 441/503 415/645
f 557/647 407/552 400/519 468/494
f 404/544 558/648 403/548 469/545
f 470/525 562/649 559/650 399/497
f 402/542 561/651 560/652 401/528
f 562/649 470/525 401/528 560/652
f 468/494 399/497 559/650 557/647
f 558/648 561/651 402/542 403/548
f 590/653 573/549 407/552 557/647
f 574/506 408/509 409/537 589/654
f 560/652 561/651 559/650 562/649
f 572/655 571/656 559/650 561/651
f 572/657 589/654 409/537 466/536
f 590/658 571/659 467/540 405/456
f 465/530 442/492 617/643 649/644
f 352/379 565/660 336/390 337/380
f 564/661 350/413 349/410 563/662
f 359/404 567/663 566/664 358/422
f 396/403 395/665 567/663 359/404
f 570/666 363/414 350/413 564/661
f 563/662 349/410 353/409 342/391
f 361/430 569/667 568/668 360/427
f 358/422 566/664 346/388 356/387
f 363/414 570/666 569/669 361/435
f 395/665 396/403 360/427 568/668
f 352/379 339/441 343/443 565/660
f 426/468 428/472 578/670 577/671
f 406/459 479/458 584/672 573/673
f 526/605 549/615 592/674 593/675
f 435/491 433/493 587/676 586/677
f 561/651 558/648 589/678 572/655
f 479/458 494/567 581/679 584/672
f 494/567 511/574 596/680 581/679
f 428/472 430/474 588/532 578/670
f 437/487 435/491 586/677 585/681
f 549/615 421/469 575/682 592/674
f 481/543 492/553 582/683 583/684
f 511/574 526/605 593/675 596/680
f 513/586 524/606 594/685 595/686
f 464/529 431/466 588/465 576/687
f 404/544 574/688 589/678 558/648
f 492/553 513/586 595/686 582/683
f 404/544 481/543 583/684 574/688
f 551/626 415/645 579/689 591/690
f 557/647 559/650 571/656 590/653
f 524/606 551/626 591/690 594/685
f 421/469 426/468 577/671 575/682
f 415/645 439/488 580/691 579/689
f 464/529 576/687 587/676 433/493
f 466/536 467/540 571/659 572/657
f 405/456 406/459 573/673 590/658
f 439/488 437/487 585/681 580/691
f 381/692 391/693 610/694 600/695
f 387/696 394/697 613/698 606/699
f 398/700 388/701 607/702 614/703
f 385/704 335/705 597/706 604/707
f 394/697 383/708 602/709 613/698
f 380/710 382/711 601/712 599/713
f 390/714 398/700 614/703 609/715
f 386/716 384/717 603/718 605/719
f 391/693 392/720 611/721 610/694
f 389/722 381/692 600/695 608/723
f 393/724 380/710 599/713 612/725
f 392/720 393/724 612/725 611/721
f 335/705 386/716 605/719 597/706
f 383/726 390/714 609/715 602/727
f 388/701 389/722 608/723 607/702
f 371/728 385/704 604/707 598/729
f 384/717 387/696 606/699 603/718
f 382/711 371/728 598/729 601/712
f 342/391 653/730 661/731 563/662
f 346/388 657/732 652/733 341/382
f 336/390 651/734 653/730 342/391
f 343/443 654/735 663/736 565/660
f 568/668 666/737 660/738 395/665
f 347/385 658/739 659/740 348/423
f 569/667 667/741 666/737 568/668
f 570/666 668/742 667/743 569/669
f 341/382 652/733 656/744 345/383
f 348/423 659/740 655/745 344/442
f 567/663 665/746 664/747 566/664
f 395/665 660/738 665/746 567/663
f 563/662 661/731 662/748 564/661
f 344/442 655/745 654/735 343/443
f 565/660 663/736 651/734 336/390
f 345/383 656/744 658/739 347/385
f 564/661 662/748 668/742 570/666
f 566/664 664/747 657/732 346/388